<svg width="20" height="20" viewBox="0 0 20 20" fill="none" xmlns="http://www.w3.org/2000/svg">
<g clip-path="url(#clip0_3_42)">
<path fill-rule="evenodd" clip-rule="evenodd" d="M16.6666 0.833313C18.0474 0.833313 19.1666 1.9526 19.1666 3.33331V16.6666C19.1666 18.0474 18.0474 19.1666 16.6666 19.1666H3.33331C1.9526 19.1666 0.833313 18.0474 0.833313 16.6666V3.33331C0.833313 1.9526 1.9526 0.833313 3.33331 0.833313H16.6666ZM16.6666 2.49998C17.1269 2.49998 17.5 2.87308 17.5 3.33331V16.6666C17.5 17.1269 17.1269 17.5 16.6666 17.5H12.5V11.6666H14.2301C14.5888 11.6666 14.9072 11.4371 15.0207 11.0967L15.3899 9.98923C15.5248 9.58448 15.2236 9.16656 14.797 9.16656H12.5V7.49991C12.5 7.08325 12.9166 6.66658 13.3333 6.66658H15C15.4602 6.66658 15.8333 6.29348 15.8333 5.83325V5.26159C15.8333 4.9924 15.6614 4.75106 15.4011 4.68237C14.3087 4.3941 13.3333 4.3941 13.3333 4.3941C11.25 4.3941 9.99998 5.83325 9.99998 7.08325V9.16656H8.33331C7.87308 9.16656 7.49998 9.53965 7.49998 9.9999V10.8332C7.49998 11.2935 7.87307 11.6666 8.33331 11.6666H9.99998V17.5H3.33331C2.87308 17.5 2.49998 17.1269 2.49998 16.6666V3.33331C2.49998 2.87308 2.87308 2.49998 3.33331 2.49998H16.6666Z" fill="white" fill-opacity="0.75"/>
</g>
<defs>
<clipPath id="clip0_3_42">
<rect width="20" height="20" fill="white"/>
</clipPath>
</defs>
</svg>
