<svg width="20" height="20" viewBox="0 0 20 20" fill="none" xmlns="http://www.w3.org/2000/svg">
<path d="M3.39532 2.49485C3.44384 1.63644 3.64889 1.26316 4.23692 0.963403C4.86962 0.640769 5.86753 0.790913 7.04176 1.38553C7.54753 1.64176 7.59903 1.64698 8.4854 1.53334C9.66356 1.38223 11.1803 1.38276 12.2677 1.53472C13.0901 1.64964 13.1441 1.6439 13.6511 1.38713C15.3178 0.543086 16.6337 0.598312 17.1102 1.53227C17.3481 1.99845 17.3922 3.20811 17.2078 4.20581C17.1056 4.75893 17.1164 4.82799 17.3627 5.19095C19.0958 7.74489 17.8471 11.8847 14.8773 13.4296C14.6501 13.5479 14.4586 13.621 14.3025 13.6806C13.8232 13.8636 13.6777 13.9192 13.8539 14.7615C13.9387 15.1667 14.0409 16.174 14.0811 17.0002C14.1536 18.4935 14.1526 18.5039 13.8906 18.8086C13.5341 19.223 13.0203 19.23 12.6721 18.8252C12.4451 18.5612 12.4229 18.4365 12.4229 17.4179C12.4229 15.9127 12.2579 14.9122 11.8681 14.0549C11.4045 13.0346 11.7481 12.6542 12.8083 12.4262C14.2819 12.1092 15.4328 11.1998 16.0743 9.84552C16.6842 8.55819 16.7761 6.77919 15.6735 5.69725C15.3599 5.3246 15.3381 4.98707 15.562 3.96926C15.6456 3.58885 15.7158 3.09809 15.7179 2.87856C15.7211 2.53188 15.6895 2.47953 15.4766 2.47953C15.3418 2.47953 14.827 2.67554 14.3326 2.91506L13.5436 3.29748C13.4719 3.33224 13.3916 3.3456 13.3125 3.33652C11.3062 3.10624 9.3999 3.10268 7.38383 3.33742C7.30436 3.34667 7.22376 3.3333 7.15177 3.29837L6.36319 2.9157C5.86881 2.67574 5.354 2.47953 5.21929 2.47953C4.90782 2.47953 4.90314 2.70948 5.18704 4.07567C5.36047 4.91004 5.47717 5.09596 4.97582 5.76312C4.22436 6.76315 4.03665 8.00495 4.43962 9.30969C4.94752 10.9539 6.19123 12.0646 7.93976 12.4352C8.99381 12.6586 9.26931 12.9501 8.86681 14.1588C8.54998 15.1099 8.34965 15.3551 7.88921 15.3551C7.26969 15.3551 6.88162 14.8184 7.09518 14.2569C7.18925 14.0094 7.16126 13.9829 6.58091 13.7713C4.80929 13.1254 3.45427 11.6776 2.83475 9.7686C2.35591 8.29322 2.5666 6.37284 3.33477 5.21213C3.59632 4.81692 3.60037 4.7834 3.47831 4.02683C3.40926 3.59854 3.37191 2.90921 3.39532 2.49485Z" fill="white" fill-opacity="0.75"/>
<path d="M2.77667 13.2878C2.52138 12.9049 2.00399 12.8014 1.62105 13.0568C1.23811 13.312 1.13463 13.8294 1.38992 14.2123C1.5784 14.4951 1.80387 14.7273 1.99535 14.9188C2.03065 14.9541 2.06495 14.9882 2.09844 15.0214C2.25883 15.1808 2.40045 15.3214 2.54268 15.4884C2.85727 15.8577 3.17111 16.355 3.34948 17.2468C3.42893 17.6441 3.71447 17.8581 3.87269 17.9516C4.04427 18.0529 4.23175 18.1127 4.38602 18.1516C4.70161 18.2312 5.08472 18.2725 5.44831 18.2966C5.84744 18.3231 6.27991 18.3317 6.66664 18.334C6.66692 18.7939 7.0399 19.1668 7.49996 19.1668C7.9602 19.1668 8.3333 18.7937 8.3333 18.3334V17.5001C8.3333 17.0398 7.9602 16.6668 7.49996 16.6668C7.4214 16.6668 7.33641 16.667 7.24639 16.6673C6.75734 16.6688 6.11988 16.6708 5.55846 16.6336C5.28774 16.6157 5.06519 16.5903 4.90199 16.5592C4.65067 15.5726 4.24466 14.9162 3.81142 14.4076C3.61991 14.1828 3.42159 13.9862 3.26028 13.8262C3.23008 13.7963 3.20118 13.7676 3.17386 13.7403C2.98773 13.5542 2.86598 13.4218 2.77667 13.2878Z" fill="white" fill-opacity="0.75"/>
</svg>
