<svg width="20" height="20" viewBox="0 0 20 20" fill="none" xmlns="http://www.w3.org/2000/svg">
<g clip-path="url(#clip0_3_44)">
<path fill-rule="evenodd" clip-rule="evenodd" d="M10 15C12.7614 15 15 12.7614 15 10C15 7.23857 12.7614 5 10 5C7.23857 5 5 7.23857 5 10C5 12.7614 7.23857 15 10 15ZM10 13.3333C11.8409 13.3333 13.3333 11.8409 13.3333 10C13.3333 8.15905 11.8409 6.66667 10 6.66667C8.15905 6.66667 6.66667 8.15905 6.66667 10C6.66667 11.8409 8.15905 13.3333 10 13.3333Z" fill="white" fill-opacity="0.75"/>
<path d="M15 4.16669C14.5398 4.16669 14.1667 4.53979 14.1667 5.00002C14.1667 5.46025 14.5398 5.83335 15 5.83335C15.4603 5.83335 15.8334 5.46025 15.8334 5.00002C15.8334 4.53979 15.4603 4.16669 15 4.16669Z" fill="white" fill-opacity="0.75"/>
<path fill-rule="evenodd" clip-rule="evenodd" d="M1.37828 3.56336C0.833313 4.63292 0.833313 6.03305 0.833313 8.83331V11.1666C0.833313 13.9669 0.833313 15.3671 1.37828 16.4366C1.85765 17.3774 2.62255 18.1423 3.56336 18.6216C4.63292 19.1666 6.03306 19.1666 8.83331 19.1666H11.1666C13.9669 19.1666 15.3671 19.1666 16.4366 18.6216C17.3774 18.1423 18.1423 17.3774 18.6216 16.4366C19.1666 15.3671 19.1666 13.9669 19.1666 11.1666V8.83331C19.1666 6.03305 19.1666 4.63292 18.6216 3.56336C18.1423 2.62255 17.3774 1.85765 16.4366 1.37828C15.3671 0.833313 13.9669 0.833313 11.1666 0.833313H8.83331C6.03306 0.833313 4.63292 0.833313 3.56336 1.37828C2.62255 1.85765 1.85765 2.62255 1.37828 3.56336ZM11.1666 2.49998H8.83331C7.40568 2.49998 6.43519 2.50128 5.68505 2.56256C4.95435 2.62226 4.58068 2.73047 4.32001 2.86329C3.6928 3.18287 3.18287 3.6928 2.86329 4.32001C2.73047 4.58068 2.62226 4.95435 2.56256 5.68505C2.50128 6.43519 2.49998 7.40568 2.49998 8.83331V11.1666C2.49998 12.5943 2.50128 13.5647 2.56256 14.3149C2.62226 15.0456 2.73047 15.4193 2.86329 15.68C3.18287 16.3071 3.6928 16.8171 4.32001 17.1366C4.58068 17.2695 4.95435 17.3777 5.68505 17.4374C6.43519 17.4986 7.40568 17.5 8.83331 17.5H11.1666C12.5943 17.5 13.5647 17.4986 14.3149 17.4374C15.0456 17.3777 15.4193 17.2695 15.68 17.1366C16.3071 16.8171 16.8171 16.3071 17.1366 15.68C17.2695 15.4193 17.3777 15.0456 17.4374 14.3149C17.4986 13.5647 17.5 12.5943 17.5 11.1666V8.83331C17.5 7.40568 17.4986 6.43519 17.4374 5.68505C17.3777 4.95435 17.2695 4.58068 17.1366 4.32001C16.8171 3.6928 16.3071 3.18287 15.68 2.86329C15.4193 2.73047 15.0456 2.62226 14.3149 2.56256C13.5647 2.50128 12.5943 2.49998 11.1666 2.49998Z" fill="white" fill-opacity="0.75"/>
</g>
<defs>
<clipPath id="clip0_3_44">
<rect width="20" height="20" fill="white"/>
</clipPath>
</defs>
</svg>
