<svg width="20" height="20" viewBox="0 0 20 20" fill="none" xmlns="http://www.w3.org/2000/svg">
<path d="M5.41669 6.66669C6.10705 6.66669 6.66669 6.10705 6.66669 5.41669C6.66669 4.72633 6.10705 4.16669 5.41669 4.16669C4.72633 4.16669 4.16669 4.72633 4.16669 5.41669C4.16669 6.10705 4.72633 6.66669 5.41669 6.66669Z" fill="white" fill-opacity="0.75"/>
<path d="M4.16669 8.33333C4.16669 7.8731 4.53979 7.5 5.00002 7.5H5.83335C6.29359 7.5 6.66669 7.87309 6.66669 8.33333V15C6.66669 15.4602 6.29359 15.8333 5.83335 15.8333H5.00002C4.53979 15.8333 4.16669 15.4602 4.16669 15V8.33333Z" fill="white" fill-opacity="0.75"/>
<path d="M9.16665 15.8333H9.99998C10.4602 15.8333 10.8333 15.4602 10.8333 15V11.25C10.8333 10 13.3333 9.16667 13.3333 10.8333V15.0003C13.3333 15.4606 13.7064 15.8333 14.1666 15.8333H15C15.4602 15.8333 15.8333 15.4602 15.8333 15V10C15.8333 8.33333 14.5833 7.5 12.9166 7.5C11.25 7.5 10.8333 8.75 10.8333 8.75V8.33333C10.8333 7.87309 10.4602 7.5 9.99998 7.5H9.16665C8.7064 7.5 8.33331 7.8731 8.33331 8.33333V15C8.33331 15.4602 8.7064 15.8333 9.16665 15.8333Z" fill="white" fill-opacity="0.75"/>
<path fill-rule="evenodd" clip-rule="evenodd" d="M16.6666 0.833313C18.0474 0.833313 19.1666 1.9526 19.1666 3.33331V16.6666C19.1666 18.0474 18.0474 19.1666 16.6666 19.1666H3.33331C1.9526 19.1666 0.833313 18.0474 0.833313 16.6666V3.33331C0.833313 1.9526 1.9526 0.833313 3.33331 0.833313H16.6666ZM16.6666 2.49998C17.1269 2.49998 17.5 2.87308 17.5 3.33331V16.6666C17.5 17.1269 17.1269 17.5 16.6666 17.5H3.33331C2.87308 17.5 2.49998 17.1269 2.49998 16.6666V3.33331C2.49998 2.87308 2.87308 2.49998 3.33331 2.49998H16.6666Z" fill="white" fill-opacity="0.75"/>
</svg>
